<svg width="221" height="223" viewBox="0 0 221 223" xmlns="http://www.w3.org/2000/svg" xmlns:xlink="http://www.w3.org/1999/xlink"><defs><filter x="-9.1%" y="-5.1%" width="118.2%" height="110.2%" filterUnits="objectBoundingBox" id="a"><feGaussianBlur stdDeviation="1.49" in="SourceGraphic"/></filter><filter x="-10.4%" y="-5.1%" width="120.7%" height="110.2%" filterUnits="objectBoundingBox" id="b"><feGaussianBlur stdDeviation="1.49" in="SourceGraphic"/></filter><filter x="-9.9%" y="-5.1%" width="119.9%" height="110.2%" filterUnits="objectBoundingBox" id="c"><feGaussianBlur stdDeviation="1.49" in="SourceGraphic"/></filter><path d="M83.368 16H127l-56.368 88H27l56.368-88zm.88 99H128s-.653.486-6.524 9.463C115.606 133.44 72.203 203 72.203 203H27l57.248-88zm63.513-99H202s-14.88.668-23.845 14.492C169.19 44.316 134.318 104 134.318 104H91l56.76-88z" id="e"/><filter x="-4%" y="-2.7%" width="108%" height="107.5%" filterUnits="objectBoundingBox" id="d"><feOffset dy="2" in="SourceAlpha" result="shadowOffsetOuter1"/><feGaussianBlur stdDeviation="2" in="shadowOffsetOuter1" result="shadowBlurOuter1"/><feColorMatrix values="0 0 0 0 0 0 0 0 0 0 0 0 0 0 0 0 0 0 0.5 0" in="shadowBlurOuter1"/></filter></defs><g fill="none" fill-rule="evenodd"><circle fill="#71C533" cx="110.5" cy="110.5" r="110.5"/><g opacity=".62" style="mix-blend-mode:darken" fill="#747771"><path d="M0 0h49l-2.634 88H4.836L4.91 8.028l.007-.835C4.953 2.21 0 0 0 0z" filter="url(#a)" transform="translate(24 19)"/><path d="M48 99.097L47.006 187l-29.084-9.62S3.282 190.675 5 186.116c.085-.226 0-86.59 0-86.868 0-.45 43-.153 43-.153z" filter="url(#b)" transform="translate(24 19)"/><path filter="url(#c)" d="M104.305 0H62l7.64 88H107" transform="translate(24 19)"/></g><path d="M158.403 91.796c-.677 2.92-1.016 5.13-1.016 6.634 0 .91.26 1.73.778 2.46s1.222 1.094 2.11 1.094c1.27 0 2.614-.523 4.03-1.57 1.42-1.048 2.614-2.323 3.588-3.825.486-.75.93-1.12 1.333-1.12.402 0 .603.19.603.57 0 1.06-1.17 2.59-3.51 4.58-2.34 2-4.78 3-7.32 3-1.95 0-3.48-.72-4.59-2.15-1.11-1.43-1.67-3.08-1.67-4.94 0-4.04 1.83-8.52 5.5-13.43s7.25-7.36 10.74-7.36c1.22 0 2.24.43 3.06 1.3.81.86 1.22 1.82 1.22 2.85 0 2.07-1.15 4.19-3.45 6.34-2.3 2.16-6.11 4-11.44 5.52zm.476-1.428c3.19-1.396 5.86-3.19 8.01-5.38 2.15-2.19 3.22-4.205 3.22-6.046 0-.402-.15-.798-.46-1.19-.31-.39-.73-.587-1.25-.587-1.38 0-2.95.926-4.73 2.777-1.78 1.852-3.38 5.327-4.8 10.426zm31.3-30.69l-5.46 19.01c3.07-1.946 5.46-2.92 7.17-2.92 2.13 0 3.77.91 4.92 2.73 1.14 1.82 1.71 3.967 1.71 6.443 0 4.68-1.71 8.98-5.11 12.89-3.41 3.92-6.79 5.87-10.16 5.87-2.08 0-3.77-.61-5.1-1.84-1.32-1.22-1.98-2.97-1.98-5.23 0-2.13.85-6.19 2.57-12.15l5.81-19.96c.23-.74.35-1.33.35-1.77 0-1.18-1.01-1.83-3.02-1.94-.51-.02-.76-.22-.76-.6 0-.34.21-.51.63-.51l5.08.13c1.01 0 2.12-.04 3.33-.13zm-5.65 42.465c2.52 0 4.74-1.82 6.66-5.46 1.92-3.638 2.88-7.838 2.88-12.6 0-2.22-.29-3.882-.88-4.982-.58-1.1-1.46-1.65-2.62-1.65-1.51 0-3.07.87-4.69 2.61-1.62 1.74-2.91 4.36-3.87 7.86-.97 3.5-1.45 6.18-1.45 8.02 0 2.08.32 3.63.98 4.67.65 1.04 1.64 1.56 2.95 1.56zm-68.98 50.432c.68 0 1.26.244 1.74.73.48.487.73 1.07.73 1.746 0 .7-.25 1.3-.73 1.78-.49.49-1.07.73-1.75.73-.7 0-1.29-.24-1.78-.73-.49-.48-.73-1.08-.73-1.77s.25-1.28.74-1.76 1.08-.71 1.76-.71zm-10.28 40.69c0 .36.08.628.24.808.16.18.38.27.68.27.65 0 1.56-.37 2.73-1.11 1.16-.74 2.27-1.662 3.33-2.762.46-.48.83-.73 1.11-.73.38 0 .57.17.57.51 0 .74-1.07 1.88-3.21 3.41-2.14 1.54-4.12 2.31-5.94 2.31-1.17 0-2.05-.24-2.65-.71-.61-.47-.91-1.03-.91-1.66 0-.95 1.18-4.28 3.52-9.99 2.98-7.19 4.47-11.28 4.47-12.25 0-.38-.07-.66-.21-.84-.14-.18-.36-.27-.65-.27-.91 0-2.37.98-4.38 2.92-.78.77-1.34 1.15-1.65 1.15-.3 0-.45-.17-.45-.51 0-.55 1.11-1.68 3.33-3.38 2.22-1.7 4.2-2.55 5.94-2.55.72 0 1.34.27 1.86.81.51.54.77 1.12.77 1.73 0 .76-.13 1.51-.4 2.25s-1.85 4.55-4.75 11.43c-2.266 5.78-3.4 8.85-3.4 9.21zm13.02 2.38c2.98-8.083 4.99-13.844 6.01-17.282 1.02-3.438 1.54-5.528 1.54-6.268 0-.36-.07-.63-.19-.81-.13-.18-.33-.27-.61-.27-.98 0-2.85 1.958-5.62 5.872-.53.762-.93 1.143-1.21 1.143-.42 0-.64-.15-.64-.445 0-.508 1.13-2.158 3.39-4.95 2.26-2.794 4.24-4.19 5.93-4.19.93 0 1.62.248 2.08.745.45.498.68 1.244.68 2.238 0 1.545-.77 4.507-2.29 8.887.31-.445.95-1.492 1.9-3.142 3.59-6.2 6.88-9.3 9.87-9.3 1.35 0 2.34.44 2.95 1.317.61.88.92 1.9.92 3.063 0 1.227-.53 3.915-1.59 8.062 2.73-5.142 5-8.496 6.82-10.06 1.82-1.567 3.51-2.35 5.08-2.35 1.16 0 2.1.354 2.81 1.063.7.71 1.06 1.614 1.06 2.714 0 2.137-1.61 7.723-4.83 16.758-.888 2.433-1.33 3.882-1.33 4.348 0 .296.07.518.21.666.133.15.33.223.583.223.55 0 1.67-.7 3.36-2.095 1.69-1.397 2.96-2.666 3.81-3.81.447-.59.85-.887 1.21-.887.34 0 .51.127.51.38 0 .804-1.4 2.45-4.206 4.936-2.8 2.49-5.157 3.73-7.06 3.73-.68 0-1.245-.25-1.7-.76-.456-.51-.68-1.15-.68-1.93 0-1.1.475-2.94 1.43-5.52 3.11-8.46 4.665-13.87 4.665-16.21 0-.59-.1-1.03-.3-1.32-.2-.28-.5-.43-.9-.43-1.95 0-4.37 2.48-7.27 7.43-2.9 4.95-5.67 11.11-8.316 18.47-.74.09-1.51.13-2.316.13-.55 0-1.06-.04-1.525-.12 4.335-11.97 6.504-19.26 6.504-21.87 0-1.23-.138-2.15-.41-2.76-.27-.61-.7-.92-1.27-.92-1.52 0-3.74 2.43-6.65 7.27-2.906 4.85-5.7 10.94-8.39 18.28-.55.09-.96.13-1.24.13-.15 0-.4-.01-.76-.03-.72-.06-1.41-.1-2.06-.1z" fill="#ECF5E3"/><path d="M22 16h49l-2.634 88h-41.53l.075-79.972.01-.835C26.96 18.21 22 16 22 16zm48 99.097L69.006 203l-29.084-9.62S25.282 206.675 27 202.116c.085-.226 0-86.59 0-86.868 0-.45 43-.153 43-.153zM126.305 16H84l7.64 88H129" fill="#CDD4D1"/><use fill="#000" filter="url(#d)" xlink:href="#e"/><use fill="#ECF5E4" xlink:href="#e"/></g></svg>