<svg width="490px" height="375px" viewBox="0 0 490 375" version="1.1" xmlns="http://www.w3.org/2000/svg" xmlns:xlink="http://www.w3.org/1999/xlink"><defs><linearGradient x1="50%" y1="0%" x2="50%" y2="100%" id="linearGradient-1"><stop stop-color="#4A4A4A" offset="0%"></stop><stop stop-color="#E1E1E1" offset="100%"></stop></linearGradient></defs><g id="Page-2" stroke="none" stroke-width="1" fill="none" fill-rule="evenodd"><path d="M0,0 L98,0 L92.7329437,175 L9.67103208,175 L9.82250092,15.964415 L9.83452745,14.3033656 C9.90624905,4.39750857 0,0 0,0 Z" id="Rectangle-2" fill="url(#linearGradient-1)"></path><path d="M94.4923774,199.192672 L92.4923774,374.192672 L8,374.192672 L8,215.157087 L8,199.496038 C8,198.598922 94.4923774,199.192672 94.4923774,199.192672 Z" id="Rectangle-2" fill="url(#linearGradient-1)"></path><polygon id="Rectangle" fill="url(#linearGradient-1)" points="208.549735 0 123 0 138.450265 175 214 175"></polygon><polygon id="Rectangle" fill="#5F5F5F" points="122.173064 0 209 0 96.8269359 175 10 175"></polygon><path d="M121.928935,199 L209,199 C209,199 207.701212,199.967063 196.017393,217.819186 C184.333573,235.67131 97.9574714,374 97.9574714,374 L8,374 L121.928935,199 Z" id="Rectangle" fill="#5F5F5F"></path><path d="M251.522231,0 L360,0 C360,0 330.238043,1.32893524 312.310509,28.8191863 C294.382975,56.3094374 224.636341,175 224.636341,175 L138,175 L251.522231,0 Z" id="Rectangle" fill="#5F5F5F"></path>
<path d="M375.42385,135.412909 L319.269567,135.412909 C318.411237,132.543124 317.982079,129.906966 317.982079,127.504355 C317.982079,124.167396 318.576298,120.897225 319.764755,117.693744 L338.581886,117.693744 C337.261379,110.285694 333.134857,106.581725 326.202194,106.581725 C321.58042,106.581725 317.817031,108.567186 314.911915,112.538168 C312.0068,116.509149 310.554264,121.597936 310.554264,127.80468 C310.554264,134.278381 311.957281,139.517328 314.763359,143.521679 C317.569437,147.526031 321.250295,149.528176 325.806044,149.528176 C329.503464,149.528176 333.06878,147.659507 336.502098,143.922113 L357.597093,169.549832 C347.759316,177.358316 336.832283,181.2625 324.815669,181.2625 C310.15804,181.2625 297.844496,176.290505 287.874668,166.346367 C277.904839,156.402228 272.92,144.089033 272.92,129.406412 C272.92,114.790531 277.954358,102.443967 288.023224,92.3663499 C298.092091,82.2887329 310.455153,77.25 325.112782,77.25 C339.440283,77.25 351.473224,82.1719411 361.211963,92.0159709 C370.950703,101.860001 375.82,113.989666 375.82,128.40533 C375.82,129.873592 375.687951,132.209428 375.42385,135.412909 Z M422.869396,42.90625 L422.869396,124.521453 C422.869396,137.774416 427.616821,144.400799 437.111812,144.400799 C441.162123,144.400799 444.598196,143.018915 447.420134,140.255106 C450.242072,137.491297 451.65302,134.144808 451.65302,130.215537 C451.65302,126.153071 450.325069,122.739984 447.669128,119.976176 C445.013186,117.212367 441.759706,115.830483 437.908591,115.830483 C435.18625,115.830483 432.065566,117.029225 428.546443,119.426746 L428.546443,78.2695081 C432.928747,77.8699213 436.248624,77.6701309 438.506174,77.6701309 C452.516267,77.6701309 464.517623,82.7314882 474.510604,92.8543547 C484.503585,102.977221 489.5,115.164437 489.5,129.416367 C489.5,144.001287 484.420588,156.288398 474.261611,166.278069 C464.102634,176.267739 451.619895,181.2625 436.81302,181.2625 C429.376383,181.2625 422.122451,179.630878 415.051007,176.367586 C407.979562,173.104293 402.153177,168.708904 397.571678,163.181286 C389.603853,153.591202 385.62,141.170898 385.62,125.92 L385.62,42.90625 L422.869396,42.90625 Z" id="eb" fill="#14A616"></path>
<path d="M243.551985,264.959699 L243.551985,374.651429 L203,374.651429 L203,264.959699 L243.551985,264.959699 Z M223.38442,216 C228.878121,216 233.630824,217.962036 237.642672,221.886166 C241.654519,225.810296 243.660413,230.449502 243.660413,235.803923 C243.660413,241.525085 241.762946,246.219301 237.967955,249.886713 C234.172964,253.554124 229.311835,255.387803 223.38442,255.387803 C217.457006,255.387803 212.595876,253.554124 208.800886,249.886713 C205.005895,246.219301 203.108428,241.525085 203.108428,235.803923 C203.108428,230.449502 205.114321,225.810296 209.126169,221.886166 C213.138016,217.962036 217.890719,216 223.38442,216 Z M425.775003,374.651429 L380.717242,374.651429 L380.717242,308.882844 C380.717242,303.829966 380.195188,300.325604 379.151063,298.369651 C378.106939,296.413698 376.219511,295.435736 373.488724,295.435736 C368.428736,295.435736 365.898781,299.958809 365.898781,309.005091 L365.898781,374.651429 L320.841019,374.651429 L320.841019,308.882844 C320.841019,303.829966 320.298886,300.325604 319.214603,298.369651 C318.13032,296.413698 316.222813,295.435736 313.492026,295.435736 C308.512356,295.435736 306.022558,299.958809 306.022558,309.005091 L306.022558,374.651429 L260.964796,374.651429 L260.964796,299.592115 C260.964796,285.900445 265.502654,274.266776 274.578505,264.690757 C283.654356,255.114738 294.657657,250.3268 307.588736,250.3268 C320.921403,250.3268 332.888496,256.031577 343.490375,267.441302 C355.297013,256.031577 367.103474,250.3268 378.910113,250.3268 C393.929442,250.3268 405.976851,255.868583 415.052702,266.952316 C422.200939,275.591107 425.775003,288.182365 425.775003,304.726466 L425.775003,374.651429 Z" id="im" fill="#14A616"></path></g></svg>
